# xmcd
#
# Track frame offsets: 
#        182
#        14795
#        26180
#        39895
#        53530
#        70130
#        84547
#        95182
#        108017
#        123257
#        134605
#        151442
#
# Disc length: 2158 seconds
#
# Revision: 0
# Processed by: cddbd v1.5.1PL0 Copyright (c) Steve Scherf et al.
# Submitted via: ExactAudioCopy v0.95a5
#
DISCID=9d086c0c
DTITLE=Z.Z. Hill - A Man Needs A Woman
DYEAR=1993
DGENRE=Soul
TTITLE0=It Ain't No Use
TTITLE1=Faithful And True
TTITLE2=The Chokin' Kind
TTITLE3=Early In The Morning
TTITLE4=Second Chance
TTITLE5=Hold Back
TTITLE6=I Think I'll Do It
TTITLE7=Our Love Is Getting Better
TTITLE8=A Man Needs A Woman
TTITLE9=Ha Ha (The Laughing Song)
TTITLE10=Take Me Just As I Am
TTITLE11=Touch 'em With Love
EXTD=
EXTT0=
EXTT1=
EXTT2=
EXTT3=
EXTT4=
EXTT5=
EXTT6=
EXTT7=
EXTT8=
EXTT9=
EXTT10=
EXTT11=
PLAYORDER=
